<?xml version="1.0" standalone="no"?>
<!DOCTYPE svg PUBLIC "-//W3C//DTD SVG 20010904//EN"
 "http://www.w3.org/TR/2001/REC-SVG-20010904/DTD/svg10.dtd">
<svg version="1.0" xmlns="http://www.w3.org/2000/svg"
 width="1414.000000pt" height="512.000000pt" viewBox="0 0 1414.000000 512.000000"
 preserveAspectRatio="xMidYMid meet">

<g transform="translate(0.000000,512.000000) scale(0.100000,-0.100000)"
fill="#000000" stroke="none">
<path d="M350 1791 l0 -511 218 0 c247 0 320 8 396 43 99 46 176 149 211 284
21 78 20 277 -1 362 -35 143 -126 257 -239 301 -56 22 -78 23 -322 28 l-263 4
0 -511z m494 343 c101 -35 153 -128 163 -293 7 -121 -9 -230 -45 -301 -22 -45
-36 -59 -81 -82 -53 -28 -57 -28 -195 -26 l-141 3 -3 345 c-1 190 0 351 3 357
7 20 238 17 299 -3z"/>
<path d="M2220 1787 l0 -504 68 4 c37 2 72 5 78 7 6 3 9 30 8 67 -1 35 -3 259
-3 497 l-1 432 -75 0 -75 0 0 -503z"/>
<path d="M1580 2007 c-101 -29 -186 -112 -217 -215 -24 -78 -24 -228 0 -302
42 -129 140 -203 282 -216 142 -13 247 32 311 132 20 30 34 57 32 59 -2 2 -36
9 -75 16 l-71 12 -44 -47 c-43 -44 -47 -46 -102 -46 -65 0 -102 16 -140 60
-27 33 -51 103 -42 126 4 11 50 14 251 14 227 0 245 1 245 18 -2 117 -41 239
-98 303 -68 77 -223 117 -332 86z m187 -138 c35 -22 66 -72 76 -124 10 -54 5
-56 -164 -53 l-154 3 -3 25 c-7 45 17 97 60 134 37 32 48 36 96 36 38 0 65 -6
89 -21z"/>
<path d="M2640 1811 c0 -5 -3 -17 -7 -27 -6 -16 -5 -17 8 -4 17 15 21 40 7 40
-4 0 -8 -4 -8 -9z"/>
<path d="M2631 1744 c0 -11 3 -14 6 -6 3 7 2 16 -1 19 -3 4 -6 -2 -5 -13z"/>
<path d="M2642 1717 c-6 -7 -11 -92 -12 -220 l-1 -207 74 0 73 0 -2 38 c-2 51
-2 50 -21 55 -16 4 -16 5 -2 6 18 1 35 31 18 31 -6 0 -8 7 -5 16 8 21 -4 41
-14 24 -5 -9 -9 -9 -14 -1 -4 6 -2 11 3 11 6 0 11 5 11 11 0 5 -6 7 -12 3 -8
-5 -7 0 2 11 14 17 13 18 -3 12 -10 -4 -16 -3 -12 2 7 13 -5 42 -16 35 -5 -3
-9 0 -9 5 0 6 4 11 9 11 5 0 11 10 14 23 6 21 5 21 -8 3 -8 -11 -18 -16 -22
-13 -3 4 -3 7 2 7 4 0 1 8 -6 17 -8 9 -9 14 -3 10 7 -4 18 1 25 10 12 14 12
16 0 9 -9 -6 -12 -5 -9 5 3 8 10 13 16 12 5 -1 8 7 4 19 l-5 22 -9 -23 c-4
-12 -12 -19 -18 -16 -14 9 -12 35 3 35 8 0 7 3 -3 10 -9 6 -17 5 -22 -3 -7
-11 -13 12 -9 36 2 11 -5 9 -17 -6z m112 -292 c3 -8 1 -15 -4 -15 -6 0 -10 7
-10 15 0 8 2 15 4 15 2 0 6 -7 10 -15z"/>
<path d="M2737 1563 c-11 -11 -8 -20 7 -20 8 0 12 6 9 14 -6 15 -7 15 -16 6z"/>
</g>
</svg>
